<svg xmlns="http://www.w3.org/2000/svg" xmlns:xlink="http://www.w3.org/1999/xlink" viewBox="0 0 2094 1102">
  <g id="wheels" style="isolation: isolate" fill="white">
    <path d="M295,344c20.81,1.91,44,12.33,71.56,20.29C396.37,372.9,418.51,379.73,445,390c-3.07,9.22-12.93,13.12-12,13-10.75,9.11-15.65,13.88-26,16-4.75,1-15.59-4.56-20-6-21.08-6.91-41.82-12.34-63-20-11.92-4.31-30-6.5-40-14-5.21-5.45-3.72-21.49,0-27C286.47,348.34,288.13,345,295,344Z" fill-rule="evenodd"/>
    <path d="M158,405c8.49-2.8,14.65-3.78,22-5,11-1.81,27.13-4.41,34-5,19.1-1.65,49.34-4.09,71,0-1.45-.27,12,4.13,17,7,9.09,5.26,12.27,8.37,20,15,3.56,3.05,10.71,10.6,15,13,8.76,4.89,34.08,9.45,45,12-1,6.27-.8,9.33,0,12,12.12.31,40.75,3.55,42,6,.43.85,3.33,5.92,4,7,.67,3.67-39.87-5.27-43-2,7.83,12,15.87,32.76,16,51,12.88,0,59.4,2.1,75,2,4,.47,8.85,7.48,4.64,12.91-6,.09-10.31.09-14.64.09a261.19,261.19,0,0,1-27-1c-12.09-.85-28.67-1-43-1-7.89,0-20-.86-28,0,.54,6.68-1.08,19.58-1,28-.26,5.55-2.13,20.68-13,40-13.77,21.07-31.3,38.47-65,52-21.67,8.18-46.66,15-69,15-29.68,1.33-35.6-.18-57-3-9.92-2.81-23.19-12.67-31-19a112.66,112.66,0,0,1-18-19c-13.36-18.78-22.33-41.61-29-67-2.13-8.11-.11-14.25-2-23-1.38-6.39-1.46-18.61,0-25,1.87-8.21-.19-14.45,2-22,7.54-25.95,16.56-44.16,33-61C125.67,417.15,139,410.78,158,405Z" fill-rule="evenodd"/>
    <path d="M1776,465c10.26,3.49,11.92,4.05,22,10,43.38,25.59,63,57.73,77,114,7.68,30.89.32,73.38-12,92-3.2,4.83-5.69,14.45-12,16-7.46-5-11.46-5.92-19-10-10-5.44-23.7-12.94-34-18-6.79-3.33-10.69-5.26-18-9-23.33-11.94-45-22-68-34-19.51-10.18-40.55-19.71-61-30-17.08-8.59-34-16.52-51-24-7.07-3.11-17.71-8.58-25-12,4.12-12.12,9.17-25.21,15-34,13.66-20.59,32.16-35.13,57-45,0,.67-1,6.33-1,7-4,5.93-7.42,42.1-5,48,15.46,3.65,15.93,3.15,34,7,1-1.77,20.26,3.32,21,1,2.43-6.19.66-20.26,1-31,.37-11.59,2.18-34.49,12-39C1752.87,453.83,1765.29,460.39,1776,465Z" fill-rule="evenodd"/>
    <path d="M1392,551c3.14,1.94,12.28,11.39,18,12,6.86.73,9.18-14.09,14-3a18.14,18.14,0,0,0-6,13c10.65,8,16.88,17.77,23,28,2.38-1.45,8-3.07,12-5a29.74,29.74,0,0,1,15-3c5.75,1.4,8.45,2.47,7,8-6.84,4.78-16.29,2.65-26,11,5.22,7,7.41,19.14,10,26,1,3.67,3,8.33,4,12,1.07.78,16.86-.8,19,0,1,2,5.06,4.6,6,7,6,.36,13.21-.54,21,1,1.22,2.28,3.64,1.25,4,5-10,5.27-44.78,14.47-45,27,4.61,5.34-.24,35.56-3,46-.73,4-3.67,15-4,19-3.83,11.66-16.84,36.91-24,44-11.2,11.09-19.86,21.69-33,30-22.61,14.3-24.34,14-46,22-32.31,6.85-12.09,5.4-75,8-36.4-5.12-53.94-13.26-67.72-19.89-13.19-10.68-21.83-20.65-27.28-26.11-6.06-6.07-11.08-14.09-16-21-8.76-12.31-17.78-35.31-22-51-21-78.28,13.61-156.48,60-184,7.74-4.59,29.13-12.84,56-16,21.4-2.52,42.26-4.51,64-5C1362.69,535.27,1392,551,1392,551Z" fill-rule="evenodd"/>
  </g>
  <g id="upper" style="isolation: isolate" fill="white">
    <path d="M1024,482c13.89,1.65,40,2.34,57,1,16-1.26,32.69-3.06,49-3,0,2.67-1,5.33-1,8a204.47,204.47,0,0,0-34-1c-3.74.68-10.33-.26-14,0-6.56.46-16.27-.3-23,1,1.71,2.48-2.67,1.86,8,4,14.47,2,31.64,4.61,46,7,37.86,6.31,86.57,14.5,120,28-.31,2-.81.65-1,5-19.27.23-44.69-.15-66-1-6,0-11-1-17-1-16.43,0-33.9.24-49-1-17.25-1.42-51.62-1.47-60,4-3.81,2.49-6.18,3.08-12,9-3.41,10.19-2.4,18.79,0,23,3,17.81,30.34,19.38,59,22,22.79,2.08,49-2.5,65-1a21.58,21.58,0,0,1,1,7c-9.37,5.12-18.48,4-31,6a154.71,154.71,0,0,0-36,10c-9,5-16,9.14-25,15-5.67,6-11.33,11-17,17-5,3.62-14.69,7.38-21,9-6,1.48-16.55,3-25,4-37.78,3.77-66.17-1.46-102-7-15.4-2.36-62-11.12-75.89-13.33C778.42,623.75,770.22,626,732,615c-43.24-12.41-80.62-30.74-120-47-30.1-12.43-63.27-19.56-96-29-10.12-2.92-24-2.84-33-6-3.16-5.69.87-12.61-6-14-5.43-1.18-9.43-1.3-19-1-16.55-.23-46.11-1.39-56-1-1.79-6.23-6-23.91-6-27-2.91-15.05-13.19-20.43-11-27,.69.42,12.2,1.36,20,2,12.83,2,14.36,2.33,22,3a8.9,8.9,0,0,0,0-6c-8.94-4.13-32.31-5.45-46-7-.63-1.75-.19-1-1-2,1-14.36,4.05-30.2,22-34,18.69-4.48,21.29-8.77,27-13,3.71-2.75,21.22-21.09,29-28,2.57-2.28,3.17-3.64,7-7,9.07,4.63,23,2.28,33,2,31.38-.89,54.61-11.22,78-21,48.37-20.22,91.46-48.34,143-65,20.16-6.52,43.32-7.49,65-9.66,6.63-.34,21.29-.34,28-.34,13.64-.08,21.33-.24,30,1-5.51-.79,14.33.83,29,2,16.47,2,31.47,5.43,44,7-.1-2.67-.07-3.83,0-6-20.33-5.05-34.5-5.62-29-16,9.16-.23,15.38-3.23,23-5h26c12.73-.11,36.9-4.26,48-1,1.55,2.55,1.08,11.78,0,15-5,.43-15.47,1.87-21,3-1.24,1.84-.09,5.7,0,9,.51,6.62,2.27,7.59,16,11.64,4.17,2.83,7.73,4.59,9,11.36,2.12,13.69-2.1,29-11,36-5.47,4.29-11.31,2.9-17,9,3.94,3.95,7,1.82,8,16,13.79-.58,50,6.49,55,7,4.74,1.26,19,2.84,24,4,8.35,1.86,16.19,3.59,23,6,6.38,1.86,11.33,6,19,6,16.43,3.67,44.56,1.11,53,13,7.06,9.79,8.13,22.16,17,33,11.12,2.34,22.8,2.95,33,4,8.77.91,19.32,1.31,29,2,10.34.73,28.07,1,39,4,8.83,2.39,15.2,2.75,16,13,.25,1,1.78,1.38,1,2-4.37,4.85-2.13,6.48-36,9-35,2.6-77.68,4.13-116,1-6.57-.54-25.9-1-35-1-2.93-18.82-5.45-22.78-21-21.56-8.18.78-36,1.42-42,2.56-1.67,3.1-2.1,6.49-2,12C1023.41,467.6,1023.92,477.17,1024,482Z" fill-rule="evenodd"/>
  </g>
  <g id="lower" style="isolation: isolate" fill="white">
    <path d="M1123,487c14,.81,30.86,2.29,42,4,2.66,0,24.48,4,35,6,31.74,6.07,67.86,10.72,96,19,0,.33,2,3.67,2,4-8.17.79-46.34,10.14-48,13,2.08.87,9.67,1,10,1,9.5,1,23.77.09,36,5-30.11-.1-56.14,4-76,13-23.16,10.48-39.63,28.49-54,52-6.71,11-12.12,24.94-16,38-1.8,6-1.21,9.66-3,15-7.66-.49-38.23,0-52.55-.81-17-1-49.74,0-55.45.81-12.39,1.65-18.86,2.06-64,3-37.53.78-87.34-1.52-105-2-7.9-.22-13-1.45-33-2,2.55,0-14-1.52-33-4-.33,0-16.66-2.06-17-2.09-23.59-2.15-42.78-4.8-71-9.91-24-3.47-37.78-6.19-71.86-14.93C599.62,613.64,595.61,611.58,571,604c-29-8.94-36.48-12.82-52-18-.75-.25-21.23-7-69-29-53.72-26.55-30.38-23.47-26-24,14.06-.1,28.1-.11,38,0,16.81.18,24.12-.29,37,3a83.79,83.79,0,0,1,15,2c11.77,3.1,14.47,5.08,28.18,8.06,7.4,1.61,23.71,5.76,30.82,7.94-2.29-.7,23,7.07,40,14-7-2.85,20.09,8.83,34,15,6.36,2.82,18.66,7.18,25,10,12.15,5.41,36.89,14.64,35,14,21.8,7.35,40.42,12,68,18,1.13.25,15.89,3.24,20,4,8,1.48,12.92,2.61,21,4,1.8.31,23.69,4.24,28,5,15.53,2.76,19.27,2.92,31.1,5.66,25.6,4,31.6,5,39.9,6.34a468.76,468.76,0,0,0,59,5c29.37.56,55.35-8,66-13,3.17-1.5,10.94-10.79,20-18,12.57-10,33.16-18.73,34-19,36.27-11.46,60.34-4,57-18-.58-2.42-7.16,1-47,1-30,0-18.94-1.16-44-3,0-.67-9-1.67-18-4-14.58-6.35-15-16.52-16-19-2-15.27.72-16.41,1-20,3.89-4.08,6.36-6.61,12-9,10.27-4.36,28.46-5.87,45-5,10.88.57,43.8,1.38,54,2,36.66.67,55.34,1.33,92,2,5.52-4.09-1.57-6.43,0-5-9.26-5.37-18.84-7.75-32-11-38.09-9.42-61.61-12.06-95-18-12.63-2.25-33-4.31-45-8-1.08-.91,3.92-1.92,3-3h19C1096.25,486.66,1109.09,485.69,1123,487Z" fill-rule="evenodd"/>
    <path d="M1393,544c2-1.9,5.44.32,14,4,5.83,2.54,7.42,2.71,14,6,8.64,3.2,24,9.58,32,13,2.11.9,24.19,9,38,15-7.52-3.25,41.88,16.54,69,28,11.49,4.86,70.45,32,75,34,18.41,8.27,94.5,44.36,106.73,50.33,16.75,8.32,28.27,14.19,39.27,19.67-11.59-5.77,21.32,11.26,51,27,30.31,16.07,77.14,37.43,101,60,0,2-1,3-1,5-2.54,2.57-7.5-.08-12,0-6.44-1.2-17.76-4-28-6-24.89-6.21-57-15.32-80-22-19.46-5.64-44.45-9.52-64-16-14.57-4.83-38.72-10-54-14-43-11.26-75.37-18.81-118-30-26.22-6.88-54-14-77-19-11.64-2.52-36-3.53-32-14,12.73-9.58,37.79-15.9,45-21,2.22-1.57.53-4.82-5-7-5.35-.78-11,.33-11,0-4.77,1.22-13.26,7.44-30,14,0,0-1.17-3,0-5,2.81-3.22,17.64-4,21-11-1.63-2.89-4.43-5.35-6.19-5.67-5.29-1-9.47-.83-17.81-.33-3.34-16.3-8.79-23.3-15-37,3.73-2.1,10.72-4.57,16-6,9.6-2.6,11.43-5,12-8-2-1-5-3.13-7-4-.62-.27-8.78-.06-13,0-4.62,2.9-7,5.81-15,7a130.72,130.72,0,0,0-24-30c2-4.45,9.33-11,5-15-8.75-2.13-7.63,14-11,9-9.31-7.71-13.72-10.93-19-13A14.88,14.88,0,0,0,1393,544Z" fill-rule="evenodd"/>
  </g>
  <g id="front" style="isolation: isolate" fill="white">
    <path d="M1575,560c24.22,10.64,49.23,23.34,71,33,45.41,20.15,84.5,40.84,128,62,33.6,16.34,43,23.86,79,42,20,10.6,18.5,9.59,41,22,24.27,13.38,45.51,26.36,69,41,12,7.47,27,14.39,35,27,9.1,14.41-8.45,27.43,1,22-8.88,5.11-17.22,8.3-25,8a166.6,166.6,0,0,1-23-3c-7.6-1.48-16.17-4.71-25-8-13.16-14.66-19.68-24.8-38-35-39.36-21.91-150.64-79-182-93-37.22-16.68-66.77-32.17-129-60-26.68-11.93-43.35-18.3-77-32-10.72-4.36-89.18-35.63-94.51-38a102.86,102.86,0,0,1-10.49-5c-3.66-.35.57,7.64-3,8s-16-7.91-19-9c-4.91-3.36-25.6-6-35-6-2.58-.36-14.94.14-38,2-9.83.79-14.07-1.28-25-3,.33,0-24.48-.14-25-2,8.47-7,42.35-11.66,48-14-4.26-5.94-21.61-6.68-30-9-17-3.3-48.75-9-67-12-30.35-5.06-24.68-5-56-9-1.93-.25-9.81-.92-15-1-3.3-.05.76-5.35-1-8-2.23-.71-35.19,3.41-46,4-7.57,1.48-15.71.67-21,1a225.84,225.84,0,0,1-23-1,145.57,145.57,0,0,1-15-2c-.1-2.07,0-18.87,0-25,1.52-4.71,2-4.67,56-6,3,3.2,7.57,7.82,8,12.35.33,3.95.32,8.63,1,9.65,8.87.17,16,.13,22,0,11.14.24,42.54,1.83,53,2a646.32,646.32,0,0,0,76-3c10.81-1,31.32,1.05,36-9-7.86-13.45,21.64-23.16,27-28V418a9.75,9.75,0,0,1-5-2c8.26-3.5,13.59-7.16,22-8,4-.4,13.74.47,17,3,5.35,7,6.14,12.54,6,26-2.16.57-18.65,5.63-20,7-13.94,5.58-17.76,6.31-26,14-5.07,4.73,15.69,7.5,22,9,31.85,7.6,54.93,16.06,92,27,25.16,10.06,23.92,8.95,35.93,13.52,10.34,3.93,49.83,20.33,53.07,20.48C1528.68,539.12,1533.87,540.38,1575,560Z" fill-rule="evenodd"/>
    <path d="M1696,545c-11-1.27-48.63-8.52-54-11-1.86-2.55-.07-14.86,0-21,0-2.23,1.7-17.09,3-22,4.44-16.73,3-12.21,8-21,4-7.15,10-9.38,15-12,29.32-15.49,35.85-12.07,46-13a361,361,0,0,1,37,0c7.19.24,25.94,2.32,31,4,0,.67,1,6.08-2,6-4.59-1.13-31,3-30,3-13.38,3-31.38,8.79-42,15C1694.81,480.71,1696.34,529.93,1696,545Z" fill-rule="evenodd"/>
  </g>
  <g id="flip" style="isolation: isolate" fill="white">
    <path d="M684,301c-14.32,6.83-26.82,12.68-36,17-5.66,2.66-45.16,22.51-53,26-67.17,29.89-79.2,28.42-102,29-19.55.5-32,2.69-26-5,5.76-10.51,6.38-11.93,10-18,5.66-9.5,11-17.82,17-27,4.11-6.25,7.34-17.6,16-17,29.38-1.9,68.34-7.67,97-11,29-4.5,47.64-6.8,77-11,7.33-.67,24.24-2.9,33-4,18.91-2.13,32.71-4.86,34-5,5.6-.62,17.68-3,28-3.32,10.88-.38,41.72,1.79,49,4.32,0,.33-2-.33-2,0-.67,0,1.67,1,1,1,.78.5-39.45-2.54-80,5C733.41,284.51,720.74,283.72,684,301Z" fill-rule="evenodd"/>
  </g>
  <g id="floor" style="isolation: isolate" fill="white">
    <path d="M367,528c6.77-.53,39.28-.63,45,3,2.34,1.49,3.65,5.18,6,7,29.22,22.59,108.87,49.72,119,54,14.64,6.19,100.26,32.45,138,40,14.67,2.94,56.64,9.75,51,9,6.09.81,30,4.39,37,6,1.61.06,22.73,1.34,45,5,32.48,7,111.06,5.53,140,8,2.84.24,13.46,0,18,0,28.85,0,53.79-3.21,73-4,17.32-.71,66.92,0,58,0,11.6,0,37,1.24,48,0,.91,1.08-.08.08,1,1,.65,11.78-4.54,27-2,44,0-32.82-1.33,8.16,5,44-1.67,3.66-5.47,2.12-7,5-.9,1.68.4,6.86,0,8-14.44-3.51-32.27-5.52-49-6-.79,1.46.17,7.25-2,10-3.83,0-26.9-3.93-30-4-12.81-3.46-39.44-5.4-52-7-34.34-4.39-44.47-6.17-77-9-24.9-2.17-71.88-8.45-88-12-52.93-11.66-194.14-33.47-215-38-83.07-18-206.54-49.67-230-60,1.91.84-31.72-7.17-40-13-.8-1-.35-.27-1-2,10.42-.4,29.29-1.65,36-7a95.86,95.86,0,0,0-13-6c-8.58-3.38-21.08-4-27-10C364.9,581.75,366.94,551.62,367,528Z" fill-rule="evenodd"/>
    <path d="M1146,667c.8,1,.35.27,1,2h-1Z" fill-rule="evenodd"/>
  </g>
  <g id="Layer_9_Image" data-name="Layer 9 Image">
    <image id="Layer_9_Image-2" data-name="Layer 9 Image" width="2094" height="886" transform="translate(0 216)" xlink:href="configuratorF11.png"/>
  </g>
</svg>
