<svg xmlns="http://www.w3.org/2000/svg" viewBox="0 0 1028.5 380">
  <g id="Layer_1" data-name="Layer 1" style="isolation: isolate" stroke="blue" fill="white">
    <path d="M414.5,185c-7.88.53-9-1.22-12-3.5-1.56-4.83-1.36-7.59,0-10,1.08-1.85,8-4.08,12-3Z" fill-rule="evenodd"/>
  </g>
  <g id="Layer_2" data-name="Layer 2" style="isolation: isolate" stroke="blue" fill="white">
    <path d="M398.5,186.5c3.46.07,3.69-.68,4-1,.86-1,1.73-2.36,3.5-1.5.85.45-.17,2.17-.5,2.5-1.3,1.78-4.34,2.55-7.5,2.5-4.89-.38-3.87-.51-4-.5-.14-.32,0-.6,0-2C394,186.18,396.68,186.4,398.5,186.5Z" fill-rule="evenodd"/>
  </g>
  <g id="Layer_3" data-name="Layer 3" style="isolation: isolate" stroke="blue" fill="white">
    <path d="M40.5,266.5c7.5.17,15-.17,22.5,0a63.67,63.67,0,0,1,0,8c-11.64.14-21.28.22-24,0-6.85-.94-6.1-.87-8-1.5-2.47-1.31-3-3.55.5-5C34.83,267.33,36.81,267,40.5,266.5Z" fill-rule="evenodd"/>
  </g>
  <g id="Layer_4" data-name="Layer 4" style="isolation: isolate" stroke="blue" fill="white">
    <path d="M63,251.5c.22,2.44-.09,6.55,0,8.5a10.58,10.58,0,0,1-2-2c-1.06-1.3-1.18-1.4-1-3.5C61.49,252.34,61.75,252.18,63,251.5Z" fill-rule="evenodd"/>
  </g>
  <g id="Layer_5" data-name="Layer 5" style="isolation: isolate" stroke="blue" fill="white">
    <path d="M958,226c-.5,8.33.73,18.74-.8,20.62-3.05,1.57-5.07,1.67-7.7.88V247C952.67,238.67,954.83,234.33,958,226Z" fill-rule="evenodd"/>
  </g>
  <g id="Layer_6" data-name="Layer 6" style="isolation: isolate" stroke="blue" fill="white">
    <path d="M473,145c3.13.49,11.41,1.76,15,2.5,6.19.94,15.7,3.13,23,4.5,3.42,1.22,12.88,2.89,14,4,4.39,2.25,16.44,3.73,20.5,7-15.23-.23-18.71-.32-29,0-4-.56-23.5.67-23.5-.5-.59-3,1.11-3.54-12-5.5-9.18-1.37-28.3-4.19-33.5-5.5-2.23-.24-14.51-2.4-21.5-3-1.67,0-10.82-.51-17.5,2,0,.17-11.18,3.95-15,9-.05,0-9,7.95-11,18,.14-.28-11.26,0-16,0-3.44,0-13.75.05-14.5-.5,0-.17,19.5-14.83,19.5-15,9.87-7.14,8.44-8.41,11-10,7.32-4.54,11.62-10.3,18-11.5,11.27-2.11,19-3.78,30-2C439.33,139.75,464.5,143,473,145Z" fill-rule="evenodd"/>
  </g>
  <g id="Layer_7" data-name="Layer 7" style="isolation: isolate" stroke="blue" fill="white">
    <path d="M173,277.5H63c-.17-4.17.17-.33,0-4.5.08.52,14.69.39,14.5.5,36.5,0,59.5-.5,96-.5C173.33,274.5,173.17,276,173,277.5Z" fill-rule="evenodd"/>
  </g>
  <g id="Layer_8" data-name="Layer 8" style="isolation: isolate" stroke="blue" fill="white">
    <path d="M65,240.5c2.91-2.54,72.5-1.17,108-1,.08,5.37-.49,19.64,0,21.5,0-1.33-.5,14.33-.5,13l-110-.5C62.35,264.19,62.09,242.79,65,240.5Z" fill-rule="evenodd"/>
  </g>
  <g id="Layer_9" data-name="Layer 9" style="isolation: isolate" stroke="blue" fill="white">
    <path d="M906.5,249.5c3-40.27-20.5-57.68-48.5-69L880.5,122l116,.5c1.08,1.06,1,1.72,1,4-3.69,7.08-12.28,29.69-15.5,38.5-10.89,29.75-23,57.83-34,85.5C942.25,250,915.48,249.42,906.5,249.5Z" fill-rule="evenodd"/>
  </g>
  <g id="Layer_10" data-name="Layer 10" style="isolation: isolate" stroke="blue" fill="white">
    <path d="M173,241.5l24-2v5h-.5c-6.5-.44-16.95.73-23.5,1Z" fill-rule="evenodd"/>
  </g>
  <g id="Layer_11" data-name="Layer 11" style="isolation: isolate" stroke="blue" fill="white">
    <path d="M321,237.5c8,.33,15,.67,23,1-.17,2.67-.33,5.33-.5,8-11.74-1.33-14.27-1.27-22.5-1Z" fill-rule="evenodd"/>
  </g>
  <g id="Layer_12" data-name="Layer 12" style="isolation: isolate" stroke="blue" fill="white">
    <path d="M452.5,191.5c2.36-.86,4.69-.38,7.5,1-.17,1.5.17,3,0,4.5-2.17-.17-5.33.17-7.5,0Z" fill-rule="evenodd"/>
  </g>
  <g id="Layer_13" data-name="Layer 13" style="isolation: isolate" stroke="blue" fill="white">
    <path d="M453,185.5c8.18-.26,19.23-.2,22,.5,10.76,2.45,10.5,5.83,10.5,6,.2.25-25.05.6-25.5.5-.88-1.6-17.37-3.81-33-1.5C427.92,184.89,449.52,185.56,453,185.5Z" fill-rule="evenodd"/>
  </g>
  <g id="Layer_14" data-name="Layer 14" style="isolation: isolate" stroke="blue" fill="white">
    <path d="M460.5,192.5h25c.21,15.1,2.65,47.78-4,49.5-5.4,3.43-27.16,2.06-40.5,2,.17-14.5-.17-30,0-44.5,6.66.13,14.23.4,18-.5A15.25,15.25,0,0,0,460.5,192.5Z" fill-rule="evenodd"/>
  </g>
  <g id="Layer_15" data-name="Layer 15" style="isolation: isolate" stroke="blue" fill="white">
    <path d="M439.5,200l1.5.5c-.13,11.33-1.12,38.76.5,46.5,3.31,2.81,5.67,3.17,8,4.5,6,2.32,18,2.21,17.5,3-4.09,7.86-42.95,1.61-44-5-1.11-5.86-1.32-42.38.5-44C428.6,198.17,433.59,200.59,439.5,200Z" fill-rule="evenodd"/>
  </g>
  <g id="Layer_16" data-name="Layer 16" style="isolation: isolate" stroke="blue" fill="white">
    <path d="M344.5,215a115.09,115.09,0,0,1,13.5-.5c.17,13.83.33,28.67.5,42.5.33-.17.17.17.5,0,.17-13.83-.17-28.17,0-42,7,0,10.64,2.51,14.5,5.5.17,13.17.33,26.83.5,40,.17-12.67.33-25.83.5-38.5.83.67,1.67,1.83,2.5,2.5,6.18,10.53,14.5,27.73,25,34.5,10.27,6.63,29.78,6.2,32,18l-1,1-28.5-1.5c-18.27-3-40.34-3.91-61-4,0-.5.45-.08,0-1.5C343.8,271,343.33,225.56,344.5,215Z" fill-rule="evenodd"/>
  </g>
  <g id="Layer_17" data-name="Layer 17" style="isolation: isolate" stroke="blue" fill="white">
    <path d="M434.5,285c-20.22-.39-26.08-.93-44-3.5-5.48-.79-8-.66-12-1,3.33-.5-18.33.5-15,0-9.33-.33-10.17-.17-19.5-.5v-7c11.17,0,27.29.36,51,2.5,8.92,2.09,37.92,3.37,39.5,2.5C434.67,281,434.33,282,434.5,285Z" fill-rule="evenodd"/>
  </g>
  <g id="Layer_18" data-name="Layer 18" style="isolation: isolate" stroke="blue" fill="white">
    <path d="M551,108c-.87,2.45.09,9.13-.5,18-.5-.5.12,16.8,1,18.5-2.15-1.28-4.29-4.23-8-6.5-4.44-.49-4.06-.93-8.5-1.5-.44-7.64-1.4-22,1-28.5C543.26,107.18,546.67,108.17,551,108Z" fill-rule="evenodd"/>
  </g>
  <g id="Layer_19" data-name="Layer 19" style="isolation: isolate" stroke="blue" fill="white">
    <path d="M551,107.5c6.5,0,14,.5,20.5.5.9-.5,0,14.17,0,14.5,1,1.94-1.61,20.94,3,26,7.08,7.78,14,17.2,24.5,21,10.27,3.73,16.34,6.29,20.5,11-7-.06-29.79-8.28-50.5-9-17.68-1.81-45.19-1-68.5-1,0-1.83.07-3.63,0-4,.17-.33-.17-3.17,0-3.5,14.83-.17,30.67.17,45.5,0-.17-.5-.33-.5-.5-1-5.33-2.17-16.1-4.4-21.5-7-.45-1-1.53-5.11,1.5-5.5,5.78-2.48,25.88,5.21,26,.5,1.29-3.57-.17-4.5,0-5C550.88,141.14,550.87,115.78,551,107.5Z" fill-rule="evenodd"/>
  </g>
  <g id="Layer_20" data-name="Layer 20" style="isolation: isolate" stroke="blue" fill="white">
    <path d="M501.5,171c43.94-.41,79.21-2.5,118,10.5-.17,2.17-.33,4.83-.5,7-33-5.05-80.17-6.46-116.5-6Q502,176.76,501.5,171Z" fill-rule="evenodd"/>
  </g>
  <g id="Layer_21" data-name="Layer 21" style="isolation: isolate" stroke="blue" fill="white">
    <path d="M194,203.5l1.5.5c-1.41,7.93,0,26.44-.5,34.5l-.5,1-21,1.5c-.11-2,.36-1.5-1-3-24-.17-52,.17-76,0,0-.17,6.5-2.33,6.5-2.5,21.33-7.83,40.17-14.17,61.5-22C175.2,209.36,184.6,206.64,194,203.5Z" fill-rule="evenodd"/>
  </g>
  <g id="Layer_22" data-name="Layer 22" style="isolation: isolate" stroke="blue" fill="white">
    <path d="M211,198c.5,0,5-2,5.5-2-.33.5-4.67,5-5,5.5-3.95,5.1-11.66,11.05-15.5,37.5-.17,0,.17-9,0-9V203C201.17,201.33,205.83,199.67,211,198Z" fill-rule="evenodd"/>
  </g>
  <g id="Layer_23" data-name="Layer 23" style="isolation: isolate" stroke="blue" fill="white">
    <path d="M492.5,163.5c.41-.06,7.85-.43,8,0,.11,9.85,1.36,19.75,1,19.5.33.17-51.95,1.18-65,3-4.09,1-12.16,3.49-9,5,3.2-.27,19.83-1.6,25,0,.45.12-.08,5.76,0,6-.33.5,7.83-.5,7.5,0-.33.17,0,2.3-5,2.5-10.82-.21-28.66-.56-29.5,3-6.28,6.69-3,38-3,44-11.33-2.17-27-4.71-35-5.5-6.13-11.22-13.45-23.62-22-25.5-8-1.69-16.06-1.31-21-1-.11.48-.85,23.56-1,23.5s-22.55-.52-22.5-.5c-2-35.69-34.5-51.33-40-53.5a89.6,89.6,0,0,1-11.5-3.5c13.07-4.24,98-3.2,122-2.5.35,0-.95,3.22,10.5,2.5.33.67,2.17,2.33,2.5,3-.49-.06-.42,3.76-10.5,2.5-.17.5-.33,2.5-.5,3,.5.17,6.5.33,7,.5A12.49,12.49,0,0,0,407,185c2.5.17,5-.17,7.5,0a11.84,11.84,0,0,1,.5-4.5h60C478.25,177.12,489.59,165.44,492.5,163.5Z" fill-rule="evenodd"/>
  </g>
  <g id="Layer_24" data-name="Layer 24" style="isolation: isolate" stroke="blue" fill="white">
    <path d="M572.5,107.5l71.5,1c11.26,2.22,22.17,8.24,32,12,26,10.33,51,21.67,77,32L814,177c4.45,1.79,8.93,2,12,5-13.82,4.62-28.45,16.21-36.5,29L766,216c-50.75-3.7-101.08-21-146-28,0-4.81-.28-7-1.5-10.5-23.38-10.71-49.39-16.57-46-50.5C572.67,120.83,572.33,113.67,572.5,107.5Z" fill-rule="evenodd"/>
  </g>
  <g id="Layer_25" data-name="Layer 25" style="isolation: isolate" stroke="blue" fill="white">
    <path d="M618.5,189c.17,11.17-.08,61.08.5,72,1.22-10.39.67-60.67,1-71.5,11.65,1,27.26,4,38.5,6.5,34.79,7.64,67.64,16.27,104,20-.17.33,2.17.17,2,.5-13.23,3.71-49,18-66,25.52C625,274.45,603.28,297,510,274.5c-16.17-5.17-34.83-10.83-51-16,.33-.17,3.17-.33,3.5-.5a16,16,0,0,0,5-2.5v-1c-.5-.33-10.5-1.67-11-2-8.49-.2-15.39-5.54-15-8.5,10.1,1.59,38.27.58,39.5-1.5,8.05,1.65,5.29-47.63,4.71-50.57-2-10.34-33.14-6-35.71-6.93-1.37-.48,47.74-1.4,51.5-1.5.82,2.91.15,83.26,0,84,.05.76-7.59-.21-8.5,1.5,0-.5,112.5,0,112.5-.5-3-3.2-101.15.34-102.5-.5,2-.31-1.2-84.37.5-84.5C522,179.11,607,187.5,618.5,189Z" fill-rule="evenodd"/>
  </g>
  <g id="Layer_26" data-name="Layer 26" style="isolation: isolate" stroke="blue" fill="white">
    <path d="M571,94.5c2.34-.44,4.5-1.5,5-1.5-1.73,3.92-4.58,9.12-3.5,14.5-4.08.59-27.61.49-28.5-.5l1,.5c.46-2.85,1.43-9.91,1.5-11.5-.67-.67,7.67.67,7,0,.32,0,5.72.5,8,0C569.48,95.31,565.7,96.25,571,94.5Z" fill-rule="evenodd"/>
  </g>
  <g id="Layer_27" data-name="Layer 27" style="isolation: isolate" stroke="blue" fill="white">
    <path d="M556,87.5c3.92-.27,17.77,1.64,24.5,4-1.26,1-1,0-3.5,1.5-5,0-1.78,3.81-30,2.5.33-1.33-7.38,0-4-6.5C544.5,88.5,552.12,86.87,556,87.5Z" fill-rule="evenodd"/>
  </g>
  <g id="Layer_28" data-name="Layer 28" style="isolation: isolate" stroke="blue" fill="white">
    <path d="M906,249.5c2.84,0,8.52.19,11.5,0-4.16,1.49-8.58,1.75-11.5,2.5Z" fill-rule="evenodd"/>
  </g>
  <g id="Layer_29" data-name="Layer 29" style="isolation: isolate" stroke="blue" fill="white">
    <path d="M910.5,288.5h-23l1-1c6.36-6.67,14.13-16.31,16.5-31,1.83-.17,3.67-.83,5.5-1Z" fill-rule="evenodd"/>
  </g>
  <g id="Layer_30" data-name="Layer 30" style="isolation: isolate" stroke="blue" fill="white">
    <path d="M257.5,179.5c82.87,5.55,87.06,118,1.5,126.5-4.64.46-13-1.09-16.5-2-30.53-8-56.29-43.79-42-85,5.67-16.35,20.52-29.8,39.5-36.5Z" fill-rule="evenodd"/>
    <path d="M253.5,206c-16,6.68-26,11.67-30.5,29.5-6.24,24.78,18.7,48.77,43.5,43C307.45,269,304.41,205,253.5,206Z" fill-rule="evenodd"/>
  </g>
  <g id="Layer_31" data-name="Layer 31" style="isolation: isolate" stroke="blue" fill="white">
    <path d="M840.5,179.5c.17.33,6,.39,8.5.5,9.07.7,16.21,3.21,22,7,4.23,2.76,10.87,5.65,15.5,9.5,11.23,9.34,26.31,37.22,18.5,62-8.24,26.17-26.23,42.82-56.5,47C817,309.85,789,281.86,784,258.5c-2.4-11.14-2.41-31.08,2-40,7-14.22,21.76-31.2,39-36C828.42,181.55,834.38,180.84,840.5,179.5Z" fill-rule="evenodd"/>
    <path d="M838,205.5c-17.45,6.34-23.76,10.44-29,25.5-9.4,27.05,14.25,53,41,47.5C892.1,269.9,889,204.47,838,205.5Z" fill-rule="evenodd"/>
  </g>
  <g id="Layer_32" data-name="Layer 32" style="isolation: isolate" stroke="blue" fill="white">
    <path d="M341,288.5l461,.5c0,.67,1.5,1.33,1.5,2H341A6.62,6.62,0,0,1,341,288.5Z" fill-rule="evenodd"/>
  </g>
  <g id="Layer_33" data-name="Layer 33" style="isolation: isolate" stroke="blue" fill="white">
    <path d="M488,286l291,.5V288c-68.16.17-136.34-.17-204.5,0-29-.33-58,.33-87,0C488,287.67,487.5,286.33,488,286Z" fill-rule="evenodd"/>
  </g>
  <g id="Layer_34" data-name="Layer 34" style="isolation: isolate" stroke="blue" fill="white">
    <path d="M767,216.5c6.23,1.28,12.93,1.1,17.5,2.5l.5,1c-6.77,36.24-1.28,47,16.5,68.5h-22c-.32-1.82.3-2-.5-3-95.16-.33-190.34.33-285.5,0,.32-.72.17-2,.5-6-.19-.38.29-3.94.5-9.5,20,7,49.66,13.49,81,13.5,6.69.06,15.33-.5,22-1,30.58-7.35,53.6-17.12,79-30,9.4-4.77,19.47-7.68,28-13l46-18C756.84,219.28,760.44,218.82,767,216.5Z" fill-rule="evenodd"/>
  </g>
  <g id="Layer_35" data-name="Layer 35" style="isolation: isolate" stroke="blue" fill="white">
    <path d="M789.5,211.5c-.17,1.33-3.83,6.17-4,7.5a34.2,34.2,0,0,1-5.5-1c-3.84-.46-9-.68-12.5-2C771.33,215.17,785.61,211.77,789.5,211.5Z" fill-rule="evenodd"/>
  </g>
  <g id="Layer_36" data-name="Layer 36" style="isolation: isolate" stroke="blue" fill="white">
    <path d="M423,247v3c7.61,6.56,14.45,6.42,24,8,3.33-.17,7.67.17,11,0,6,2.23,14.19,5.36,21,7.5,5.33,1.68,16.08,2.84,15.5,6.5.12,1.51-1.83,9.9-.5,13.5-7-.28-6.84-.25-7,3l-47.5-.5L340,289c.17-1.33.33-2.67.5-4,13.27-.61,33-3.59,34.5-5,1.09-1.05,49.71,6.61,60,5v-3c-.78-4.57.9-6.53-3-10.5s-11-5.61-17-7.5c-14.6-4.56-21.49-11-27-22v-.5Z" fill-rule="evenodd"/>
  </g>
  <g id="Layer_37" data-name="Layer 37" style="isolation: isolate" stroke="blue" fill="white">
    <path d="M258.5,206c17.93,3.92,25.14,7.72,32,20,13.83,24.79-5.69,50.24-28.5,52.5-26.79,2.65-46.23-25.5-36.5-49.5C231.6,214,245.29,208,258.5,206Z" fill-rule="evenodd"/>
    <path d="M256,211c-14.22,3.61-21.37,7.07-26.5,20-8.26,20.81,9.4,47.24,32.5,43C302.22,266.61,297.78,211.16,256,211Z" fill-rule="evenodd"/>
  </g>
  <g id="Layer_38" data-name="Layer 38" style="isolation: isolate" stroke="blue" fill="white">
    <path d="M844.5,206c50.6,4.08,42.34,79.78-7.49,72-18.9-2.94-39.81-27.54-25-52.52,4.27-7.2,12-15.14,20.5-18Z" fill-rule="evenodd"/>
    <path d="M839,211c-12.87,5.93-20.52,8.28-25,21.5-7.15,21.1,11.26,45.3,32,42C888.3,267.77,884.41,209.94,839,211Z" fill-rule="evenodd"/>
  </g>
  <g id="Layer_39" data-name="Layer 39" style="isolation: isolate" stroke="blue" fill="white">
    <path d="M257.5,240.5c2-.27,2.54.1,3.5,1,.33,1.23-.39,2.41-1,3.5-1.63.24-2.67.2-3.5-1.5C256.07,241.92,256.57,241.69,257.5,240.5Z" fill-rule="evenodd"/>
  </g>
  <g id="Layer_40" data-name="Layer 40" style="isolation: isolate" stroke="blue" fill="white">
    <path d="M842.5,240.5c2.64.13,2.41-.12,3.5,1.5,0,1,.11,2.23-1,3a5.85,5.85,0,0,1-2.5,0l-1-.5c-.17-.83-.33-1.17-.5-2A3.72,3.72,0,0,1,842.5,240.5Z" fill-rule="evenodd"/>
  </g>
  <g id="Layer_41" data-name="Layer 41" style="isolation: isolate" stroke="blue" fill="white">
    <path d="M258.5,237a14,14,0,0,1,5.07,3.1c0,2.24-.09,3.55-.07,5.4a19.59,19.59,0,0,1-5,3c-1.33-.83-3.17-2.17-4.5-3-.09-2.88,0-4.43,0-6C255,239,257.5,237.5,258.5,237Z" fill-rule="evenodd"/>
    <path d="M257.5,240c-.5.5-1,1.5-1.5,2,.17,1.17.33,1.33.5,2.5a13.48,13.48,0,0,1,1.5,1c2.53-.32,2.25-.57,3.5-2a7.55,7.55,0,0,0-1-3C259.33,240.33,259.61,239.76,257.5,240Z" fill-rule="evenodd"/>
  </g>
  <g id="Layer_42" data-name="Layer 42" style="isolation: isolate" stroke="blue" fill="white">
    <path d="M844,237.5c1.67.67,2.33,1.83,4,2.5.31,2.63.39,4.33,0,5.5-1.17.67-3.33,1.83-4.5,2.5-1.5-1-3-1.5-4.5-2.5,0-2.65-.24-4.51.5-6C840.5,239,843,238,844,237.5Z" fill-rule="evenodd"/>
    <path d="M842,240l-1.5,3,2,2h3l1-2c-.75-1.53-.56-1.61-2-2.5Z" fill-rule="evenodd"/>
  </g>
  <g id="Layer_43" data-name="Layer 43" style="isolation: isolate" stroke="blue" fill="white">
    <path d="M256,236l5.5.5c3,1.29,4.18,3.57,4.5,7.5-1.47,2.28-1.91,3.79-4.5,5-3.56,1.33-6.74.5-8.5-2.5a14.92,14.92,0,0,1-1.5-5C252.78,238.88,254,237.82,256,236Z" fill-rule="evenodd"/>
    <path d="M258.5,237c-2.54,1.72-6.7,3.13-4.5,8,1.22,1.87,2.7,2.66,5.5,3l4-3a12,12,0,0,0-1-6Z" fill-rule="evenodd"/>
  </g>
  <g id="Layer_44" data-name="Layer 44" style="isolation: isolate" stroke="blue" fill="white">
    <path d="M842.5,235.5l5,1c1.73,2.36,3,3.65,3.5,7.5l-3,5a16.15,16.15,0,0,1-7.5.5c-2.53-1.78-3.33-3.26-4.5-6.5C837.48,238.32,838.57,237.66,842.5,235.5Z" fill-rule="evenodd"/>
    <path d="M843,237.5l-4.5,3c.17,1.5.33,3,.5,4.5,1.22,2,2.6,2.68,5.5,3l3.5-2.5c.17-1.67.33-3.33.5-5C846.62,239.19,845.72,238.15,843,237.5Z" fill-rule="evenodd"/>
  </g>
  <g id="Layer_45" data-name="Layer 45" style="isolation: isolate" stroke="blue" fill="white">
    <path d="M255.5,211.5c25.22-.81,41.62,21.24,31,45-2.33,5.22-9.43,11.07-13,14-4.87,4-26.75,5.45-30.5-.5-20.6-10.37-20.07-46.88,2-55.5C247.5,213.83,253,212.17,255.5,211.5Z" fill-rule="evenodd"/>
    <path d="M255.5,216l-2,2c-.31,3.46.84,11.73,2.5,14.5l3.5.5,2.5-2.5c.92-3.37.25-10.94,1-14Z" fill-rule="evenodd"/>
    <path d="M250,217.5l-7,4V223l8.5,7.5,1.5-1c-.42-4-.32-8.84-1.49-11C250.6,217.48,251.49,218.15,250,217.5Z" fill-rule="evenodd"/>
    <path d="M264,229.5a5.21,5.21,0,0,0,3-1c2-2.5,5-4.5,7-7-.17-.33-.33-.67-.5-1-3.21-1.29-4.38-2.78-9-3v1C264.33,222.17,264.17,225.83,264,229.5Z" fill-rule="evenodd"/>
    <path d="M277.5,233l4-3a10.14,10.14,0,0,0-6.5-7.5L265.5,233c.17.83.33,1.67.5,2.5,1.27,1.63,1.71,2.23,4.5,2.5,1.94-1.19,11.31-9.2,11.5-6.5-1.19,2.87-8.17,6.17-9.5,7.5l1.5,1c2.89,1.35,7.81,1.63,11,1v-3.5c-.81-2.37-1.31-4.51-3-6" fill-rule="evenodd"/>
    <path d="M240.5,223.5c-2.2,2.8-4.51,3.82-5,8.5,4.42,1.74,7.56,5.75,13,6.5l1.5-.5c1-1.93.94-2.75,1-6l-9-8.5Z" fill-rule="evenodd"/>
    <path d="M263,231.5c-.17.67-.33,1.33-.5,2l1,.5,1-.5V233l-1-1.5Z" fill-rule="evenodd"/>
    <path d="M253,232c.7,2.38-.16,1.48,2,2C254.72,231.33,255.31,232.52,253,232Z" fill-rule="evenodd"/>
    <path d="M234.5,233c-1.33,2.64-2.57,6.31-1.5,10h.5l11-2v-2.5h-1C240.15,236.47,237.82,233.87,234.5,233Z" fill-rule="evenodd"/>
    <path d="M255.5,235.5c-2.5,2.31-3.93,3.57-4,8.5l2.5,4.5c2.09.74,3.84,1.45,6,1l4.5-2,1.5-6-3-5Z" fill-rule="evenodd"/>
    <path d="M247.5,239.5a5.66,5.66,0,0,0-.5,2l1,.5c.5-.5,1.18-.66,1.5-1.5V240Z" fill-rule="evenodd"/>
    <path d="M269,239.5c.17.67-.17,1.33,0,2,.17,0,1.33-.5,1.5-.5.33-.67.17-.83.5-1.5Z" fill-rule="evenodd"/>
    <path d="M271,241.5l-1.5,2c-.83,1.24-1.13,1.93-.5,3.5,1.74,3.39,10.26,5.55,15,5,.33-2.67.67-5.33,1-8l-1.5-1.5Z" fill-rule="evenodd"/>
    <path d="M241.5,243c-3,.67-6,.83-9,1.5A17.7,17.7,0,0,0,235,254c3.9-1,11-2.88,13.5-5.5l1-3L248,243C245.83,242.83,243.67,243.17,241.5,243Z" fill-rule="evenodd"/>
    <path d="M267.5,248.5c-.52,1.09-.85,1.62,0,2.5h.5l1-.5C268.34,248.59,269,249.46,267.5,248.5Z" fill-rule="evenodd"/>
    <path d="M249.5,249l-.5,1.5,1,.5h1.5C250.73,248.9,251.59,249.78,249.5,249Z" fill-rule="evenodd"/>
    <path d="M264.5,251c-5.16,2.05-1.81,11.91,3,17a20,20,0,0,0,7.5-4.5C271.88,258.92,269.81,251.87,264.5,251Z" fill-rule="evenodd"/>
    <path d="M270.5,251c-1.38,2.21,3.53,8.44,6,11h1l4.5-6c-.32-1.82-.2-1.51-1-2.5C277.5,252.67,272.86,251.09,270.5,251Z" fill-rule="evenodd"/>
    <path d="M246,251.5c-3.11,2.11-5.55,2.61-9.5,3.5l-.5,1c1.15,3.08,3.5,6.19,7,7,1.95-3.44,4.46-6.34,5-11Z" fill-rule="evenodd"/>
    <path d="M251.5,251.5c-3.13,3.4-6.35,8.3-7.5,13.5,2.7,1.65,4.93,3.12,9,3.5,1.48-4.62,5.15-10.06,3.5-14.5C255.32,252.16,254.3,251.76,251.5,251.5Z" fill-rule="evenodd"/>
    <path d="M258.5,253c.12,1.71-1.34.82.85,2.46A8.1,8.1,0,0,0,260.5,254C259.71,253.14,259.17,253.33,258.5,253Z" fill-rule="evenodd"/>
    <path d="M258,257.5q-1.75,5.25-3.5,10.5c2.59,2,7.95,2.26,10-.5l-4-10Z" fill-rule="evenodd"/>
  </g>
  <g id="Layer_46" data-name="Layer 46" style="isolation: isolate" stroke="blue" fill="white">
    <path d="M840,211.5c25.22-.81,41.62,21.24,31,45-2.33,5.22-9.43,11.07-13,14-4.87,4-26.75,5.45-30.5-.5-20.6-10.37-20.07-46.88,2-55.5C832,213.83,837.5,212.17,840,211.5Z" fill-rule="evenodd"/>
    <path d="M840,216l-2,2c-.31,3.46.84,11.73,2.5,14.5l3.5.5,2.5-2.5c.92-3.37.25-10.94,1-14Z" fill-rule="evenodd"/>
    <path d="M834.5,217.5l-7,4V223l8.5,7.5,1.5-1c-.42-4-.32-8.84-1.49-11C835.1,217.48,836,218.15,834.5,217.5Z" fill-rule="evenodd"/>
    <path d="M848.5,229.5a5.21,5.21,0,0,0,3-1c2-2.5,5-4.5,7-7l-.5-1c-3.21-1.29-4.38-2.78-9-3v1C848.83,222.17,848.67,225.83,848.5,229.5Z" fill-rule="evenodd"/>
    <path d="M862,233l4-3a10.14,10.14,0,0,0-6.5-7.5L850,233c.17.83.33,1.67.5,2.5,1.27,1.63,1.71,2.23,4.5,2.5,1.94-1.19,11.31-9.2,11.5-6.5-1.19,2.87-8.17,6.17-9.5,7.5l1.5,1c2.89,1.35,7.81,1.63,11,1v-3.5c-.81-2.37-1.31-4.51-3-6" fill-rule="evenodd"/>
    <path d="M825,223.5c-2.2,2.8-4.51,3.82-5,8.5,4.42,1.74,7.56,5.75,13,6.5l1.5-.5c1-1.93.94-2.75,1-6l-9-8.5Z" fill-rule="evenodd"/>
    <path d="M847.5,231.5l-.5,2,1,.5,1-.5V233l-1-1.5Z" fill-rule="evenodd"/>
    <path d="M837.5,232c.7,2.38-.16,1.48,2,2C839.22,231.33,839.81,232.52,837.5,232Z" fill-rule="evenodd"/>
    <path d="M819,233c-1.33,2.64-2.57,6.31-1.5,10h.5l11-2v-2.5h-1C824.65,236.47,822.32,233.87,819,233Z" fill-rule="evenodd"/>
    <path d="M840,235.5c-2.5,2.31-3.93,3.57-4,8.5l2.5,4.5c2.09.74,3.84,1.45,6,1l4.5-2,1.5-6-3-5Z" fill-rule="evenodd"/>
    <path d="M832,239.5a5.66,5.66,0,0,0-.5,2l1,.5c.5-.5,1.18-.66,1.5-1.5V240Z" fill-rule="evenodd"/>
    <path d="M853.5,239.5c.17.67-.17,1.33,0,2,.17,0,1.33-.5,1.5-.5.33-.67.17-.83.5-1.5Z" fill-rule="evenodd"/>
    <path d="M855.5,241.5l-1.5,2c-.83,1.24-1.13,1.93-.5,3.5,1.74,3.39,10.26,5.55,15,5,.33-2.67.67-5.33,1-8l-1.5-1.5Z" fill-rule="evenodd"/>
    <path d="M826,243c-3,.67-6,.83-9,1.5a17.7,17.7,0,0,0,2.5,9.5c3.9-1,11-2.88,13.5-5.5l1-3-1.5-2.5C830.33,242.83,828.17,243.17,826,243Z" fill-rule="evenodd"/>
    <path d="M852,248.5c-.52,1.09-.85,1.62,0,2.5h.5l1-.5C852.84,248.59,853.5,249.46,852,248.5Z" fill-rule="evenodd"/>
    <path d="M834,249l-.5,1.5,1,.5H836C835.23,248.9,836.09,249.78,834,249Z" fill-rule="evenodd"/>
    <path d="M849,251c-5.16,2.05-1.81,11.91,3,17a20,20,0,0,0,7.5-4.5C856.38,258.92,854.31,251.87,849,251Z" fill-rule="evenodd"/>
    <path d="M855,251c-1.38,2.21,3.53,8.44,6,11h1l4.5-6c-.32-1.82-.2-1.51-1-2.5C862,252.67,857.36,251.09,855,251Z" fill-rule="evenodd"/>
    <path d="M830.5,251.5c-3.11,2.11-5.55,2.61-9.5,3.5l-.5,1c1.15,3.08,3.5,6.19,7,7,2-3.44,4.46-6.34,5-11Z" fill-rule="evenodd"/>
    <path d="M836,251.5c-3.13,3.4-6.35,8.3-7.5,13.5,2.7,1.65,4.93,3.12,9,3.5,1.48-4.62,5.15-10.06,3.5-14.5C839.82,252.16,838.8,251.76,836,251.5Z" fill-rule="evenodd"/>
    <path d="M843,253c.12,1.71-1.34.82.85,2.46A8.1,8.1,0,0,0,845,254C844.21,253.14,843.67,253.33,843,253Z" fill-rule="evenodd"/>
    <path d="M842.5,257.5,839,268c2.59,2,8,2.26,10-.5l-4-10Z" fill-rule="evenodd"/>
  </g>
  <g id="Layer_47" data-name="Layer 47" style="isolation: isolate" stroke="blue" fill="white">
    <path d="M263,232l1.5,1c0,.17-.5.83-.5,1-.67,0-.83-.5-1.5-.5V233C262.67,232.67,262.83,232.33,263,232Z" fill-rule="evenodd"/>
    <path d="M253.5,232.5H255l-.5,1.5C253.89,233.67,253.4,233.26,253.5,232.5Z" fill-rule="evenodd"/>
    <path d="M269.5,239.5c1.42.31,1.08-.06,1,1.5H269C269,240.5,269.5,240,269.5,239.5Z" fill-rule="evenodd"/>
    <path d="M247.5,240c3,.21,1.61,1.17.5,1.5h-.5Z" fill-rule="evenodd"/>
    <path d="M267,249c.67.33,1.39-.43,2,1v.5l-1.5.5C267.33,250.33,267.17,249.67,267,249Z" fill-rule="evenodd"/>
    <path d="M249.5,249.5H251c.9,1.25.29,1.44-.5,1.5C249.32,250.72,249.83,250,249.5,249.5Z" fill-rule="evenodd"/>
    <path d="M258.5,253.5c1.42.05,1.3-.56,1.5,1.5h-.5C258.6,255.19,258.39,254.54,258.5,253.5Z" fill-rule="evenodd"/>
  </g>
  <g id="Layer_48" data-name="Layer 48" style="isolation: isolate" stroke="blue" fill="white">
    <path d="M839,232c.33.67.17.83.5,1.5-.67-.33-.83.33-1.5,0,0-.17-.5-1.33-.5-1.5C837.83,231.83,838.67,232.17,839,232Z" fill-rule="evenodd"/>
    <path d="M847.5,232l1.5,1v.5h-1.5Z" fill-rule="evenodd"/>
    <path d="M832,239.5l2,1-2,1Z" fill-rule="evenodd"/>
    <path d="M854,239.5c1.31.13,1.4-1,1.62,1.39A8.64,8.64,0,0,1,854,241Z" fill-rule="evenodd"/>
    <path d="M852.5,248.5l1,2c-.67-.17-1.33.05-2-.5Z" fill-rule="evenodd"/>
    <path d="M834,249c.67.33,1.25.22,2,1-.68,1-1.33.67-2,1l-.5-1v-.5Z" fill-rule="evenodd"/>
    <path d="M843,253.5h1.5c-.21,1.3.49.27-.5,1.5C843.22,254.77,843.33,254,843,253.5Z" fill-rule="evenodd"/>
  </g>
  <g id="Layer_49" data-name="Layer 49" style="isolation: isolate" stroke="blue" fill="white">
    <path d="M254,217l9,.5c.25,5.13-.1,12.36-3,14.5l-2.5,1-2.5-3.5Q254.51,223.25,254,217Z" fill-rule="evenodd"/>
    <path d="M265.5,218l7.5,3v1.5c-2.84,2.23-4.41,5.56-8.5,6.5v-9.5Z" fill-rule="evenodd"/>
    <path d="M249,218.5l3,.5v11l-1-1c-3.8-1.42-8-5.28-6-8.5Z" fill-rule="evenodd"/>
    <path d="M275,223a10.41,10.41,0,0,1,6,7.5l-11.5,7c-2.37-.9-4.29-1.95-3-5Z" fill-rule="evenodd"/>
    <path d="M240.5,224H242l9,9.5c-1,1.73-.84,2.81-2.5,4-3.33.81-10.46-4-12.5-6.5Z" fill-rule="evenodd"/>
    <path d="M281,232.5l2,1,1.5,7-.5.5c-4.17.05-8.23-.6-11-2l1-1.5Z" fill-rule="evenodd"/>
    <path d="M235,233.5c3.32,1,7.93,3.69,9,7l-10,2a5,5,0,0,1-1-3Z" fill-rule="evenodd"/>
    <path d="M284.5,243c.21,4.48-.27,7.51-2.5,9.5l-13-5c.17-1.5.33-3,.5-4.5l1.5-.5Z" fill-rule="evenodd"/>
    <path d="M245.5,242.5c1.6.81,2.09.92,3,2.5.17.83.33,1.67.5,2.5-4,2.52-8.07,5.3-14,6-.67-3-1.33-6-2-9Z" fill-rule="evenodd"/>
    <path d="M264.5,251.5l3.5,1c1.87,4.45,5.57,7,5.5,12l-6,2.5c-1.51-.63-.6,0-1.5-1-2.91-3.06-4.4-9.58-3.5-13.5Z" fill-rule="evenodd"/>
    <path d="M271,251.5l10.5,2.5v2l-5,5.5h-1C273.86,258.36,270.66,254.8,271,251.5Z" fill-rule="evenodd"/>
    <path d="M252,252l2.5.5,2,1c.08,5.2-1.67,11.94-4.5,14.5-3-1-5.68-1.86-7.5-4C245.49,259.39,249.07,254.9,252,252Z" fill-rule="evenodd"/>
    <path d="M244.5,252.5h3l-5,10h-1l-5-6.5,1.5-1Z" fill-rule="evenodd"/>
    <path d="M258.5,258h1c1.92,1.86,4.92,8.15,3.5,10-2,1.12-5,1.06-7.5.5l-.5-.5Q256.76,263,258.5,258Z" fill-rule="evenodd"/>
  </g>
  <g id="Layer_50" data-name="Layer 50" style="isolation: isolate" stroke="blue" fill="white">
    <path d="M839.5,217c4.15-.27,6.87-.34,8.5,2l-1.5,12-3.5,2-3.5-2.5L838,218Z" fill-rule="evenodd"/>
    <path d="M850,218c3.24.42,5.81,1.52,7.5,3.5-1.19,3.21-4.45,5.65-7,7.5H849c.17-2.67.33-5.33.5-8C849.67,220,849.83,219,850,218Z" fill-rule="evenodd"/>
    <path d="M834.5,218.5l2,1c.17,3.33.33,6.67.5,10-3.34-.92-7.6-4.58-8.5-8h1Z" fill-rule="evenodd"/>
    <path d="M859.5,223c2.85,1.12,4,3.59,6,5.5l-1,3c-4.31,1.94-7.76,7.13-13.5,4.5C850.62,230.2,855.7,227.35,859.5,223Z" fill-rule="evenodd"/>
    <path d="M825.5,224c4.25,1.51,6.88,5.71,10,8.5.07,2.85.17,3.38-1.5,4.5-1,.8-.69.65-2.5,1l-11-7Z" fill-rule="evenodd"/>
    <path d="M865.5,232.5h2v1c1.18,2.07,1.52,4.1,1.5,7.5l-11-1.5v-1Z" fill-rule="evenodd"/>
    <path d="M819.5,233.5c3.67.82,7.11,3.71,9.5,6l-.5,1c-4.82.63-8.1,2.23-11,1Z" fill-rule="evenodd"/>
    <path d="M856,242c4.42-.14,11.54,0,13,2,1.08,2.81-.75,6.42-2,8.5L854.5,248c-.17-1.33-.33-2.67-.5-4Z" fill-rule="evenodd"/>
    <path d="M829.5,242.5c11.84,3.37-4.9,9.78-9,11-1.72-2.39-2.5-4.7-2.5-9Z" fill-rule="evenodd"/>
    <path d="M855.5,251l10.5,3v2l-5,5.5-6-8.5Z" fill-rule="evenodd"/>
    <path d="M849,251.5c5.25,1.19,7.91,7.21,10,11.5l-1.5,2-6.5,2.5L846,255C847.52,253.42,847.11,253.08,849,251.5Z" fill-rule="evenodd"/>
    <path d="M831,252c1.81,2.54-1.79,8.68-4,10.5-2.58-1.76-4.86-3.75-5.5-7.5Z" fill-rule="evenodd"/>
    <path d="M836,252c2.84,0,3.2.14,4.5,1.5.4,3.49-1.13,8.21-2.5,13.5l-3,.5-6-3.5Z" fill-rule="evenodd"/>
    <path d="M843,258h2l3.5,9.5-.5.5h-8v-2Z" fill-rule="evenodd"/>
  </g>
</svg>
