<svg xmlns="http://www.w3.org/2000/svg" xmlns:xlink="http://www.w3.org/1999/xlink" viewBox="0 0 717 330">
  <g id="frontwing" style="isolation: isolate" fill="white">
    <path d="M512,22c14.74-.1,28.52,2.5,42,6l16,2c11.41,4.55,22.72,14.59,33,21,20.82,13,46.46,23.92,60,44,4.79,7.11,5.07,16,8,25,7.1,21.9,11.06,40.3,11,69-5,3.82-7.11,10.88-13,14l-44,13c-12.56,5.16-20.91,13.17-31,20-.51-25.19-15.41-26.48-31-36-29.42-18-60.47-35-90-53-8.25-5-36.77-15.63-38-25,3.62-4.84,3.78-12.72,10-15,1.47-1.12,3.05-2.09,4-1,9.35,3.26,15.56,13.57,23,19,3.16,2.31,14.64,11,17,12h13c5.08,1.63,7.77,5.33,15,6,1.29-17.6,3-37,3-55V69c-1.63-7.44-.87-16.77-3-25C515.22,37.12,512.29,31.07,512,22Z"  fill-rule="evenodd"/>
    <path d="M37,114c14.65,2.64,42.73,4.93,54,11,5.9,3.18,11.48,10.1,17,14,10.43,7.37,20.57,13.65,31,21,4.9,3.45,8.79,8.76,15,11,5.54-4.35,14.11-5.13,21-8,52.69-21.92,99-4.38,146,9l25,2,6-1,14,7c9.1,2.82,19.37,3.1,28,5a27.2,27.2,0,0,0,1,9c12.68,4.24,25.94,6.95,40,10,1.22,2.28,1.64,2.25,2,6-1.24,1.57-.64.51,0,2,7.73,6.51,34.1,8.25,46,11,1.22,2.28,1.64,2.25,2,6-.75,1.07-.6.95-1,3h1v1c12.89-.33,52.24,4.7,54,14l-3,1c-6.08,3.6-18.17-.88-26,1-5.92,1.42-16.07.09-24,2-20.68,5-44.37,4.66-66,10-36.2,8.94-75.53,13.39-111,24-12.38,3.71-23.54,2.81-36,6-14,3.58-28.35,4.54-44,8-4.45,1-13.42,4.48-17,4-26.05-3.52-51.23-15.23-76-22-7.79-2.13-13.8-1.6-21-4-16-5.31-32.12-11.75-49-16-11.17-2.82-28.75-.91-33-10V209c6-9.1-3.41-21.24-4-28,10.75-7,5.26-48.07,5-65A10.92,10.92,0,0,0,37,114Z"  fill-rule="evenodd"/>
  </g>
  <g id="shadows">
    <image id="Layer_2_Image" data-name="Layer 2 Image" width="660" height="289" transform="translate(26 17)" xlink:href="./features/frontWing1.png"/>
  </g>
</svg>
