<svg xmlns="http://www.w3.org/2000/svg" xmlns:xlink="http://www.w3.org/1999/xlink" viewBox="0 0 462 189">
  <g id="hallo" style="isolation: isolate" fill="white">
    <path d="M20,91V88h2c9.68-5.92,31-3.08,44-6,25.93-5.83,56-4.2,82-10,9.43-2.1,18.86-.21,27-3-1-.8-.27-.35-2-1-3.72-2.46-12.67-2.84-18-3V63c24.87.17,55.84-2,78-7l38-3c10.8-2.4,40.68-7.15,51-4,10.65,3.26,18.8,17.74,25,26,4.8,6.4,12.2,11.62,17,18,11.23,14.92,22.82,28.88,34,44,6.22,8.41,16.83,17,20,28-23.46,3-44.4-2.71-65-7a13.83,13.83,0,0,1-1-4c1.2-1.51,7.57-10.84,8-12-2.65-2.95-2.82-7.46-5-11-6-9.73-16.28-19-26-25C292.38,83.46,223.68,85.33,175,96l-20,1c-15.69,3.42-34.37,2.83-50,6-11.88,2.41-27.82-10.38-38-13C52.31,86.22,36.06,91,20,91Z" fill-rule="evenodd"/>
  </g>
  <g id="shadows">
    <image id="Layer_3_Image" data-name="Layer 3 Image" width="406" height="223" transform="translate(17 46)" xlink:href="./features/halo1.png"/>
  </g>
</svg>
