<svg xmlns="http://www.w3.org/2000/svg" xmlns:xlink="http://www.w3.org/1999/xlink" viewBox="0 0 508 273">
  <g id="rearwing" style="isolation: isolate" fill="white">
    <path d="M198,227l-34-4-49,5c-7.36-11.22-21-17.4-29-28-17.19-22.87-35.14-41.61-45-72-3.75-11.56-9.42-30.29-4-45,11.45-31.08,57.13-20.23,92-28,21-4.68,45.75-4.52,67-9,9.29-2,15.53,5.79,23,4,4.2-1,7.89-6.62,12-8l52-5c10.7-2.4,23.07-1.32,35-4a259.71,259.71,0,0,1,54-6c8.95,11.92,20.78,23.13,31,34,2.83,3,3,9.16,7,11l10,3c8.55,5.53,12.49,18,23,22h21c1.71.46,5.09,2.23,7,3,5,8.3,5.44,18.41,3,30l-3,1c-8,4.9-37.57,4.37-49,7-3.12.72-6-.27-8,1-5.15,5.2-7,12.51-11,19-8.13,13.28-16,28.94-25,42l-27,26c-8.28,8.28-17,20.89-31,23-1.3-2.42-1.8-2.83-2-7-4.07-6.75-.06-18.08-2-27-4.87-22.36-.79-49.89-8-69-11-4.77-27.87.32-42-3-11.44-2.69-35-9-49-7-16.37,2.29-34.79,4.76-51,6-1.94,2.64-3.79,3.36-5,7-2.63,3.32-3.17,15-1,20,2.06,4.72,7.7,9.37,10,14q2.5,12,5,24C185.66,211.35,196.2,213.94,198,227Z" fill-rule="evenodd"/>
  </g>
  <g id="shadows">
    <image id="Layer_3_Image" data-name="Layer 3 Image" width="447" height="229" transform="translate(32 24)" xlink:href="./features/rearWing1.png"/>
  </g>
</svg>
